<svg xmlns="http://www.w3.org/2000/svg" 
  xml:space="preserve" 
  className="logo-header"
  fill="#476070"
  width="240" 
  height="60" 
  viewBox="0 0 24000 6000"
  xmlns:xlink="http://www.w3.org/1999/xlink">
  <path d="M23171.59 3065.53c-228.07,0 -415.55,-54.12 -562.39,-162.36 -146.89,-108.18 -220.31,-251.25 -220.31,-429.03 0,-226.13 109.18,-389.43 327.56,
  -489.91 -172.02,-104.36 -258.02,-254.14 -258.02,-449.33 0,-158.47 66.18,-290.84 198.59,-397.14 132.38,-106.3 303.91,-159.42 514.57,-159.42 212.55,0 384.56,
  53.12 515.97,159.42 131.43,106.3 197.14,240.6 197.14,402.96 0,191.32 -86.01,339.15 -258.02,443.51 110.19,58 192.31,123.71 246.43,197.13 54.12,73.42 81.18,169.13 81.18,
  287.01 0,183.55 -73,329.03 -218.9,436.27 -145.89,107.25 -333.85,160.89 -563.8,160.89zm-210.19 -1300.15c53.12,47.31 123.19,71.02 210.19,71.02 86.95,0 157.02,-23.19 210.14,-69.6 53.17,-46.35 79.71,-107.24 79.71,-182.6 0,-65.71 -26.54,-121.77 -79.71,-168.13 -53.12,-46.41 -123.19,-69.59 -210.14,-69.59 -88.95,0 -159.48,23.18 -211.66,69.59 -52.18,46.36 -78.24,103.36 -78.24,171.02 0,71.53 26.54,130.94 79.71,178.29zm210.19 931.96c108.19,0 193.72,-24.13 256.55,-72.42 62.77,-48.36 94.18,-110.19 94.18,-185.55 0,-77.3 -32.35,-138.18 -97.12,-182.66 -64.71,-44.41 -149.25,-66.65 -253.61,-66.65 -104.36,0 -188.95,22.71 -253.66,68.13 -64.77,45.42 -97.13,107.71 -97.13,186.95 0,71.54 31.89,131.42 95.65,179.78 63.78,48.29 148.84,72.42 255.14,72.42zm-1756.75 339.19l0 -437.73 -991.42 0 -72.48 -315.97 1113.14 -1290.02 376.9 0 0 1243.61 272.49 0 0 362.38 -272.49 0 0 437.73 -426.14 0zm-539.21 -800.11l539.21 0 0 -631.92 -539.21 631.92zm-1652.35 113.07l0 -423.21 892.88 0 0 423.21 -892.88 0zm-1089.96 721.81c-297.65,0 -545.5,-100.95 -743.57,-302.91 -198.12,-201.95 -297.14,-450.78 -297.14,-746.46 0,-293.77 99.54,-542.09 298.55,-745.04 199.07,-202.9 452.26,-304.38 759.52,-304.38 175.89,0 323.73,28.54 443.56,85.54 119.83,57 233.83,138.66 342.07,244.95l-266.71 307.26c-86.95,-79.24 -168.6,-136.71 -244.96,-172.48 -76.35,-35.76 -168.61,-53.59 -276.85,-53.59 -170.06,0 -310.66,61.36 -421.78,184.07 -111.12,122.71 -166.72,273.9 -166.72,453.67 0,177.78 55.6,328.56 166.72,452.21 111.12,123.71 251.72,185.54 421.78,185.54 108.24,0 201.96,-19.35 281.21,-58 79.24,-38.65 163.29,-98.54 252.19,-179.72l284.07 304.38c-110.12,117.89 -229.48,204.89 -358.02,260.89 -128.48,56.07 -286.49,84.07 -473.92,84.07zm-1437.85 -2064.01l0 2029.24 -440.62 0 0 -1330.61 -887.06 1330.61 -420.38 0 0 -2029.24 440.68 0 0 1330.61 892.83 -1330.61 414.55 0zm-3841.07 2029.24l0 -2029.24 942.18 0c233.84,0 410.67,59.93 530.5,179.76 92.72,92.78 139.12,209.67 139.12,350.74 0,191.36 -88.88,337.25 -266.71,437.73 125.64,48.36 220.31,111.6 284.13,189.9 63.77,78.24 95.65,183.12 95.65,314.55 0,181.66 -67.65,319.83 -202.95,414.49 -135.24,94.72 -320.79,142.07 -556.57,142.07l-965.35 0zm434.85 -1208.84l411.67 0c214.49,0 321.73,-73.42 321.73,-220.31 0,-67.65 -25.12,-119.36 -75.35,-155.07 -50.24,-35.76 -122.72,-53.65 -217.43,-53.65l-440.62 0 0 429.03zm0 817.47l530.5 0c210.67,0 315.97,-75.36 315.97,-226.08 0,-146.89 -110.13,-220.31 -330.44,-220.31l-516.03 0 0 446.39zm-2371.32 391.37l0 -2029.24 829.1 0c239.66,0 429.04,64.76 568.16,194.24 139.19,129.48 208.72,300.54 208.72,513.09 0,226.14 -77.3,401.5 -231.89,526.16 -154.61,124.65 -350.79,187 -588.46,187l-339.2 0 0 608.75 -446.43 0zm446.43 -1005.89l353.67 0c110.19,0 196.66,-29 259.44,-87 62.82,-57.95 94.24,-133.36 94.24,-226.08 0,-98.59 -31.89,-174.42 -95.66,-227.6 -63.77,-53.12 -152.66,-79.72 -266.72,-79.72l-344.97 0 0 620.4zm-2388.67 1005.89l0 -2029.24 1530.61 0 0 397.14 -1087.06 0 0 411.67 956.65 0 0 397.14 -956.65 0 0 426.15 1101.6 0 0 397.14 -1545.15 0zm-1188.5 34.77c-297.66,0 -545.51,-100.95 -743.58,-302.91 -198.12,-201.95 -297.14,-450.78 -297.14,-746.46 0,-293.77 99.54,-542.09 298.56,-745.04 199.07,-202.9 452.26,-304.38 759.52,-304.38 175.89,0 323.72,28.54 443.55,85.54 119.83,57 233.84,138.66 342.08,244.95l-266.72 307.26c-86.95,-79.24 -168.6,-136.71 -244.96,-172.48 -76.35,-35.76 -168.59,-53.59 -276.84,-53.59 -170.06,0 -310.67,61.36 -421.79,184.07 -111.12,122.71 -166.71,273.9 -166.71,453.67 0,177.78 55.59,328.56 166.71,452.21 111.12,123.71 251.73,185.54 421.79,185.54 108.25,0 201.96,-19.35 281.2,-58 79.24,-38.65 163.31,-98.54 252.19,-179.72l284.08 304.38c-110.13,117.89 -229.49,204.89 -358.03,260.89 -128.48,56.07 -286.48,84.07 -473.91,84.07zm9419.69 2430.82l0 -1832.43 209.41 0 667.53 999.97 667.54 -999.97 209.39 0 0 1832.43 -206.78 0 0 -1484.26 -667.53 981.65 -10.49 0 -667.54 -979.04 0 1481.65 -201.53 0zm-1748.68 0l0 -1832.43 685.84 0c209.4,0 376.06,52.34 499.98,157.06 123.91,104.73 185.86,247.84 185.86,429.35 0,190.2 -68.5,337.68 -205.48,442.34 -137.02,104.72 -308.47,157.12 -514.4,157.12l-445.02 0 0 646.56 -206.78 0zm206.78 -835.09l452.89 0c151.82,0 273.54,-37.09 365.15,-111.23 91.61,-74.15 137.45,-173.21 137.45,-297.13 0,-127.39 -44.08,-225.54 -132.2,-294.47 -88.13,-68.93 -208.1,-103.41 -359.91,-103.41l-463.38 0 0 806.24zm-908.35 587.72c-176.27,185.83 -400.5,278.79 -672.72,278.79 -272.28,0 -495.65,-92.51 -670.16,-277.48 -174.53,-185.01 -261.79,-408.36 -261.79,-670.16 0,-260 88.16,-483 264.41,-668.84 176.25,-185.85 400.5,-278.78 672.78,-278.78 272.22,0 495.64,92.51 670.11,277.47 174.52,185 261.78,408.37 261.78,670.15 0,260.02 -88.13,482.99 -264.41,668.85zm-1184.51 -132.2c136.98,146.58 309.36,219.88 517.03,219.88 207.67,0 379.11,-72.84 514.36,-218.57 135.24,-145.73 202.89,-325.04 202.89,-537.96 0,-211.18 -68.51,-390.05 -205.52,-536.64 -136.99,-146.55 -309.31,-219.88 -516.97,-219.88 -207.68,0 -379.16,72.84 -514.41,218.58 -135.24,145.73 -202.84,325.03 -202.84,537.94 0,211.19 68.48,390.07 205.46,536.65zm-1875.64 447.65l0 -201.6c-291.42,0 -518.75,-71.54 -681.9,-214.64 -163.18,-143.13 -244.8,-335.06 -244.8,-575.92 0,-240.82 81.63,-432.31 244.8,-574.56 163.16,-142.24 390.48,-213.39 681.9,-213.39l0 -180.61 206.79 0 0 180.61c291.46,0 518.76,71.12 681.94,213.39 163.15,142.22 244.75,333.74 244.75,574.56 0,240.86 -81.59,432.82 -244.75,575.92 -163.17,143.13 -390.48,214.64 -681.94,214.64l0 201.6 -206.79 0zm0 -390.07l0 -1201.56c-226.86,0 -402.28,51.94 -526.15,155.76 -123.9,103.84 -185.85,252.61 -185.85,446.33 0,193.72 61.96,342.05 185.85,445.02 123.88,102.96 299.29,154.45 526.15,154.45zm206.79 0c226.9,0 402.26,-51.47 526.19,-154.45 123.9,-102.95 185.85,-251.3 185.85,-445.02 0,-193.72 -61.93,-342.5 -185.85,-446.33 -123.92,-103.84 -299.29,-155.76 -526.19,-155.76l0 1201.56zm-3007.77 321.99l0 -1832.43 206.78 0 0 814.11 1057.59 0 0 -814.11 206.79 0 0 1832.43 -206.79 0 0 -824.6 -1057.59 0 0 824.6 -206.78 0zm-2015.67 0l0 -1832.43 206.78 0 0 1520.93 1094.26 -1520.93 196.29 0 0 1832.43 -204.16 0 0 -1520.92 -1091.63 1520.92 -201.54 0zm-885.7 -4525.09c0,371.73 0,744.13 0,1131.43 -1237.23,0 -2474.61,-4.36 -3711.83,1.88 -825.77,4.21 -1380.82,735.52 -1130.81,1480.55 138.95,414.03 429.06,675.3 853.43,760.57 434.51,87.33 806,-54.1 1095.41,-389.82 284.61,-330.17 566.9,-662.65 840.27,-1002.11 260.84,-323.94 590.15,-481.87 1005.62,-474.51 342.18,6.06 684.6,1.2 1043.38,1.2 0,1009.24 0,2005.22 0,3016.19 -361.48,0 -722.43,0 -1109.78,0 0,-601.82 0,-1204.61 0,-1807.37 -15.49,-5.74 -30.97,-11.5 -46.46,-17.2 -288.2,339.61 -576.37,679.25 -864.59,1018.81 -386.89,455.82 -875.56,720.02 -1469.81,799.28 -1199.61,160.04 -2318.56,-684.64 -2516.48,-1906.5 -193.01,-1191.48 626.27,-2359.3 1805.71,-2570.77 119.13,-21.31 240.84,-39.59 361.4,-39.88 1281.52,-3.18 2563.02,-1.75 3844.54,-1.75z"
  />
</svg>
